<?xml version="1.0" encoding="UTF-8"?>
<svg xmlns="http://www.w3.org/2000/svg" xmlns:xlink="http://www.w3.org/1999/xlink" width="500pt" height="500pt" viewBox="0 0 500 500" version="1.1">
<g id="surface1">
<path style=" stroke:none;fill-rule:nonzero;fill:#5B5B5B;fill-opacity:1;" d="M 160 30 C 88.324219 30 30 88.324219 30 160 L 30 340 C 30 411.675781 88.324219 470 160 470 L 340 470 C 411.675781 470 470 411.675781 470 340 L 470 160 C 470 88.324219 411.675781 30 340 30 Z M 160 50 L 340 50 C 400.863281 50 450 99.136719 450 160 L 450 340 C 450 400.863281 400.863281 450 340 450 L 160 450 C 99.136719 450 50 400.863281 50 340 L 50 160 C 50 99.136719 99.136719 50 160 50 Z M 370 110 C 358.953125 110 350 118.953125 350 130 C 350 141.046875 358.953125 150 370 150 C 381.046875 150 390 141.046875 390 130 C 390 118.953125 381.046875 110 370 110 Z M 250 140 C 189.367188 140 140 189.367188 140 250 C 140 310.632813 189.367188 360 250 360 C 310.632813 360 360 310.632813 360 250 C 360 189.367188 310.632813 140 250 140 Z M 250 160 C 299.824219 160 340 200.175781 340 250 C 340 299.824219 299.824219 340 250 340 C 200.175781 340 160 299.824219 160 250 C 160 200.175781 200.175781 160 250 160 Z "/>
</g>
</svg>
