<?xml version="1.0" encoding="UTF-8"?>
<svg xmlns="http://www.w3.org/2000/svg" xmlns:xlink="http://www.w3.org/1999/xlink" width="500pt" height="500pt" viewBox="0 0 500 500" version="1.1">
<g id="surface1">
<path style=" stroke:none;fill-rule:nonzero;fill:#5B5B5B;fill-opacity:1;" d="M 0 70 L 0 430 L 500 430 L 500 70 Z M 20 90 L 480 90 L 480 115 C 476.09375 118.398438 300.742188 271.367188 284.375 285.625 L 283.4375 286.5625 C 270.46875 297.851563 257.1875 300 250 300 C 242.851563 300 229.53125 297.851563 216.5625 286.5625 C 212.851563 283.320313 186.132813 260.234375 166.875 243.4375 C 109.726563 193.59375 22.929688 117.578125 20 115 Z M 20 141.5625 C 37.34375 156.679688 98.867188 210.234375 151.25 255.9375 L 20 359.6875 Z M 480 141.5625 L 480 359.6875 L 348.75 255.9375 C 401.132813 210.234375 462.65625 156.679688 480 141.5625 Z M 166.5625 269.375 C 178.710938 279.960938 200.664063 299.140625 203.4375 301.5625 L 203.75 301.875 C 220.664063 316.40625 238.632813 320 250 320 C 261.445313 320 279.570313 316.367188 296.5625 301.5625 C 299.375 299.140625 321.484375 280.078125 333.75 269.375 L 480 385 L 480 410 L 20 410 L 20 385 Z "/>
</g>
</svg>
