<?xml version="1.0" encoding="utf-8"?>
<!-- Generator: Adobe Illustrator 23.0.2, SVG Export Plug-In . SVG Version: 6.00 Build 0)  -->
<svg version="1.1" id="Layer_1" xmlns="http://www.w3.org/2000/svg" xmlns:xlink="http://www.w3.org/1999/xlink" x="0px" y="0px"
	 viewBox="0 0 500 500" style="enable-background:new 0 0 500 500;" xml:space="preserve">
<style type="text/css">
	.st0{fill:#ED2024;}
</style>
<g id="surface1">
	<path class="st0" d="M0,70v360h500V70H0z M20,90h460v25c-3.9,3.4-179.3,156.4-195.6,170.6l-0.9,0.9c-13,11.3-26.3,13.4-33.4,13.4
		c-7.1,0-20.5-2.1-33.4-13.4c-3.7-3.2-30.4-26.3-49.7-43.1C109.7,193.6,22.9,117.6,20,115V90z M20,141.6
		c17.3,15.1,78.9,68.7,131.3,114.4L20,359.7V141.6z M480,141.6v218.1L348.8,255.9C401.1,210.2,462.7,156.7,480,141.6z M166.6,269.4
		c12.1,10.6,34.1,29.8,36.9,32.2l0.3,0.3c16.9,14.5,34.9,18.1,46.3,18.1c11.4,0,29.6-3.6,46.6-18.4c2.8-2.4,24.9-21.5,37.2-32.2
		L480,385v25H20v-25L166.6,269.4z"/>
</g>
</svg>
