<?xml version="1.0" encoding="utf-8"?>
<!-- Generator: Adobe Illustrator 23.0.2, SVG Export Plug-In . SVG Version: 6.00 Build 0)  -->
<svg version="1.1" id="Layer_1" xmlns="http://www.w3.org/2000/svg" xmlns:xlink="http://www.w3.org/1999/xlink" x="0px" y="0px"
	 viewBox="0 0 500 500" style="enable-background:new 0 0 500 500;" xml:space="preserve">
<style type="text/css">
	.st0{fill:#0077B5;}
</style>
<g id="surface1">
	<path class="st0" d="M250,20C123.2,20,20,123.2,20,250s103.2,230,230,230s230-103.2,230-230S376.8,20,250,20z M180,350h-40V200h40
		V350z M160,170c-11.1,0-20-8.9-20-20s8.9-20,20-20s20,8.9,20,20S171.1,170,160,170z M370,350h-40v-75c0-19.3-15.8-35-35-35
		s-35,15.8-35,35v75h-40V200h40v18.2c11.7-11.2,27.5-18.2,45-18.2c35.9,0,65,29.1,65,65V350z"/>
</g>
</svg>
