<?xml version="1.0" encoding="utf-8"?>
<!-- Generator: Adobe Illustrator 23.0.2, SVG Export Plug-In . SVG Version: 6.00 Build 0)  -->
<svg version="1.1" id="Layer_1" xmlns="http://www.w3.org/2000/svg" xmlns:xlink="http://www.w3.org/1999/xlink" x="0px" y="0px"
	 viewBox="0 0 500 500" style="enable-background:new 0 0 500 500;" xml:space="preserve">
<style type="text/css">
	.st0{fill:#1A355B;}
</style>
<g id="surface1">
	<path class="st0" d="M390.3,470c-0.2,0-0.3,0-0.5,0c-75.2-2.5-163.2-75.3-223.9-136C105.2,273.3,32.4,185.2,30,110.4
		C29.2,84.1,93.6,37.5,94.3,37c16.7-11.6,35.3-7.5,42.9,3c5.2,7.1,54,81.1,59.3,89.5c5.5,8.7,4.7,21.7-2.2,34.7
		c-3.8,7.2-16.4,29.3-22.3,39.6c6.4,9.1,23.2,31.3,58,66.1c34.8,34.8,57,51.6,66.1,58c10.3-5.9,32.4-18.5,39.6-22.3
		c12.8-6.8,25.7-7.7,34.5-2.3c9,5.5,82.8,54.6,89.6,59.3c5.7,4,9.4,10.9,10.1,18.9c0.7,8.1-1.8,16.6-7,24.1
		C462.5,406.4,416.3,470,390.3,470z"/>
</g>
</svg>
