<?xml version="1.0" encoding="UTF-8"?>
<svg xmlns="http://www.w3.org/2000/svg" xmlns:xlink="http://www.w3.org/1999/xlink" width="500pt" height="500pt" viewBox="0 0 500 500" version="1.1">
<g id="surface1">
<path style=" stroke:none;fill-rule:nonzero;fill:#5B5B5B;fill-opacity:1;" d="M 390.3125 470 C 390.15625 470 390 470 389.84375 470 C 314.6875 467.539063 226.640625 394.6875 165.976563 333.984375 C 105.234375 273.28125 32.382813 185.195313 30.039063 110.390625 C 29.179688 84.140625 93.59375 37.460938 94.257813 36.992188 C 110.976563 25.351563 129.53125 29.492188 137.148438 40.039063 C 142.304688 47.1875 191.132813 121.171875 196.445313 129.570313 C 201.953125 138.28125 201.132813 151.25 194.257813 164.257813 C 190.46875 171.484375 177.890625 193.59375 171.992188 203.90625 C 178.359375 212.96875 195.195313 235.195313 229.960938 269.960938 C 264.765625 304.726563 286.953125 321.601563 296.054688 327.96875 C 306.367188 322.070313 328.476563 309.492188 335.703125 305.703125 C 348.515625 298.90625 361.40625 298.046875 370.195313 303.4375 C 379.179688 308.945313 452.96875 358.007813 459.765625 362.734375 C 465.46875 366.757813 469.140625 373.632813 469.882813 381.640625 C 470.585938 389.726563 468.085938 398.28125 462.890625 405.742188 C 462.460938 406.367188 416.328125 470 390.3125 470 Z "/>
</g>
</svg>
