<?xml version="1.0" encoding="utf-8"?>
<!-- Generator: Adobe Illustrator 23.0.2, SVG Export Plug-In . SVG Version: 6.00 Build 0)  -->
<svg version="1.1" id="Layer_1" xmlns="http://www.w3.org/2000/svg" xmlns:xlink="http://www.w3.org/1999/xlink" x="0px" y="0px"
	 viewBox="0 0 500 500" style="enable-background:new 0 0 500 500;" xml:space="preserve">
<style type="text/css">
	.st0{fill:#E60023;}
</style>
<g id="surface1">
	<path class="st0" d="M250,20C123.2,20,20,123.2,20,250s103.2,230,230,230s230-103.2,230-230S376.8,20,250,20z M275.4,327.2
		c-33,0-45.2-21.4-45.2-21.4s-5.9,23.1-10.2,39.5c-4.3,16.4-5.1,16.7-9.3,25.9c-4.7,10.4-16.3,26.7-19.7,31.8c-2.7,4-6.1,7.4-8,7
		c-2-0.4-2-2.4-2.4-6.8c-0.7-6-2.6-25.9-1.7-39.5c0.6-8.8,3.7-23.7,3.7-23.7l22.3-91.1c-13.7-28.1-2.5-71.9,28.7-71.9
		c22.1,0,27.9,20,21.1,44.1c-3,10.7-12.5,40.8-12.8,42.2c-0.3,1.4-1,4.4-0.8,7.4c0,8.8,6.7,26.7,30,26.7c37.4,0,55.2-55.3,55.2-92.4
		c0-29.8-18.9-65.7-74.2-65.7c-56.3,0-87.3,42.8-87.3,82.1c0,22,8.7,30.9,12.7,35.8c3.3,3.9,1.6,7.7,1.6,7.7l-3.6,14.3
		c-1.3,4.7-5.5,7.1-11.4,3.7c-5.9-3.4-34.2-15.4-34.2-66.4c0-52.3,49.3-106.5,125.7-106.5c60.7,0,114.3,38.2,114.3,100
		C370,286.4,322.3,327.2,275.4,327.2z"/>
</g>
</svg>
