<?xml version="1.0" encoding="UTF-8"?>
<svg xmlns="http://www.w3.org/2000/svg" xmlns:xlink="http://www.w3.org/1999/xlink" width="500pt" height="500pt" viewBox="0 0 500 500" version="1.1">
<g id="surface1">
<path style=" stroke:none;fill-rule:nonzero;fill:#5B5B5B;fill-opacity:1;" d="M 210 30 C 116.015625 30 40 106.015625 40 200 C 40 293.984375 116.015625 370 210 370 C 243.554688 370 274.609375 360.15625 300.9375 343.4375 L 423.75 466.25 L 466.25 423.75 L 345 302.8125 C 366.796875 274.21875 380 238.789063 380 200 C 380 106.015625 303.984375 30 210 30 Z M 210 70 C 281.992188 70 340 128.007813 340 200 C 340 271.992188 281.992188 330 210 330 C 138.007813 330 80 271.992188 80 200 C 80 128.007813 138.007813 70 210 70 Z "/>
</g>
</svg>
