<?xml version="1.0" encoding="UTF-8"?>
<svg xmlns="http://www.w3.org/2000/svg" xmlns:xlink="http://www.w3.org/1999/xlink" width="500pt" height="500pt" viewBox="0 0 500 500" version="1.1">
<g id="surface1">
<path style=" stroke:none;fill-rule:nonzero;fill:#5B5B5B;fill-opacity:1;" d="M 250 20 C 123.171875 20 20 123.171875 20 250 C 20 376.828125 123.171875 480 250 480 C 376.828125 480 480 376.828125 480 250 C 480 123.171875 376.828125 20 250 20 Z M 362.371094 205.238281 C 362.46875 207.601563 362.53125 210 362.53125 212.410156 C 362.53125 285.589844 306.800781 370 204.910156 370 C 173.628906 370 144.5 360.828125 120 345.109375 C 124.328125 345.628906 128.71875 345.878906 133.210938 345.878906 C 159.171875 345.878906 183.058594 337.039063 202 322.179688 C 177.761719 321.738281 157.320313 305.691406 150.25 283.710938 C 153.640625 284.359375 157.109375 284.710938 160.691406 284.710938 C 165.738281 284.710938 170.640625 284.039063 175.269531 282.761719 C 149.949219 277.648438 130.859375 255.289063 130.859375 228.441406 C 130.859375 228.199219 130.859375 227.96875 130.859375 227.738281 C 138.328125 231.890625 146.859375 234.390625 155.949219 234.679688 C 141.070313 224.730469 131.308594 207.789063 131.308594 188.570313 C 131.308594 178.421875 134.03125 168.910156 138.800781 160.710938 C 166.128906 194.21875 206.949219 216.269531 252.980469 218.589844 C 252.03125 214.53125 251.53125 210.308594 251.53125 205.96875 C 251.53125 175.378906 276.328125 150.578125 306.929688 150.578125 C 322.859375 150.578125 337.25 157.300781 347.351563 168.070313 C 359.960938 165.589844 371.828125 160.980469 382.53125 154.640625 C 378.398438 167.558594 369.609375 178.421875 358.160156 185.28125 C 369.378906 183.921875 380.039063 180.960938 389.988281 176.550781 C 382.570313 187.660156 373.179688 197.429688 362.371094 205.238281 Z "/>
</g>
</svg>
