<?xml version="1.0" encoding="utf-8"?>
<!-- Generator: Adobe Illustrator 23.0.2, SVG Export Plug-In . SVG Version: 6.00 Build 0)  -->
<svg version="1.1" id="Layer_1" xmlns="http://www.w3.org/2000/svg" xmlns:xlink="http://www.w3.org/1999/xlink" x="0px" y="0px"
	 viewBox="0 0 500 500" style="enable-background:new 0 0 500 500;" xml:space="preserve">
<style type="text/css">
	.st0{fill:#1DA1F2;}
</style>
<g id="surface1">
	<path class="st0" d="M250,20C123.2,20,20,123.2,20,250s103.2,230,230,230s230-103.2,230-230S376.8,20,250,20z M362.4,205.2
		c0.1,2.4,0.2,4.8,0.2,7.2c0,73.2-55.7,157.6-157.6,157.6c-31.3,0-60.4-9.2-84.9-24.9c4.3,0.5,8.7,0.8,13.2,0.8
		c26,0,49.8-8.8,68.8-23.7c-24.2-0.4-44.7-16.5-51.8-38.5c3.4,0.6,6.9,1,10.4,1c5,0,9.9-0.7,14.6-1.9c-25.3-5.1-44.4-27.5-44.4-54.3
		c0-0.2,0-0.5,0-0.7c7.5,4.2,16,6.7,25.1,6.9c-14.9-9.9-24.6-26.9-24.6-46.1c0-10.1,2.7-19.7,7.5-27.9
		c27.3,33.5,68.1,55.6,114.2,57.9c-0.9-4.1-1.4-8.3-1.4-12.6c0-30.6,24.8-55.4,55.4-55.4c15.9,0,30.3,6.7,40.4,17.5
		c12.6-2.5,24.5-7.1,35.2-13.4c-4.1,12.9-12.9,23.8-24.4,30.6c11.2-1.4,21.9-4.3,31.8-8.7C382.6,187.7,373.2,197.4,362.4,205.2z"/>
</g>
</svg>
