<?xml version="1.0" encoding="UTF-8"?>
<svg xmlns="http://www.w3.org/2000/svg" xmlns:xlink="http://www.w3.org/1999/xlink" width="500pt" height="500pt" viewBox="0 0 500 500" version="1.1">
<g id="surface1">
<path style=" stroke:none;fill-rule:nonzero;fill:#5B5B5B;fill-opacity:1;" d="M 250 20 C 123.179688 20 20 123.171875 20 250 C 20 376.828125 123.179688 480 250 480 C 376.828125 480 480 376.828125 480 250 C 480 123.171875 376.828125 20 250 20 Z M 320 160 L 287.101563 160 C 267.71875 160 260 164.550781 260 178.058594 L 260 210 L 320 210 L 310 260 L 260 260 L 260 390 L 200 390 L 200 260 L 170 260 L 170 210 L 200 210 L 200 182.261719 C 200 140.011719 216.859375 110 265.808594 110 C 292.03125 110 320 120 320 120 Z "/>
</g>
</svg>
