<?xml version="1.0" encoding="UTF-8"?>
<svg xmlns="http://www.w3.org/2000/svg" xmlns:xlink="http://www.w3.org/1999/xlink" width="500pt" height="500pt" viewBox="0 0 500 500" version="1.1">
<g id="surface1">
<path style=" stroke:none;fill-rule:nonzero;fill:#5B5B5B;fill-opacity:1;" d="M 250 20 C 123.179688 20 20 123.171875 20 250 C 20 376.828125 123.179688 480 250 480 C 376.820313 480 480 376.828125 480 250 C 480 123.171875 376.820313 20 250 20 Z M 180 350 L 140 350 L 140 200 L 180 200 Z M 160 170 C 148.949219 170 140 161.050781 140 150 C 140 138.949219 148.949219 130 160 130 C 171.050781 130 180 138.949219 180 150 C 180 161.050781 171.050781 170 160 170 Z M 370 350 L 330 350 L 330 275 C 330 255.75 314.25 240 295 240 C 275.75 240 260 255.75 260 275 L 260 350 L 220 350 L 220 200 L 260 200 L 260 218.160156 C 271.679688 206.941406 287.519531 200 305 200 C 340.898438 200 370 229.101563 370 265 Z "/>
</g>
</svg>
