<?xml version="1.0" encoding="UTF-8"?>
<svg xmlns="http://www.w3.org/2000/svg" xmlns:xlink="http://www.w3.org/1999/xlink" width="500pt" height="500pt" viewBox="0 0 500 500" version="1.1">
<g id="surface1">
<path style=" stroke:none;fill-rule:nonzero;fill:#5B5B5B;fill-opacity:1;" d="M 250 20 C 123.179688 20 20 123.171875 20 250 C 20 376.828125 123.179688 480 250 480 C 376.820313 480 480 376.828125 480 250 C 480 123.171875 376.820313 20 250 20 Z M 275.421875 327.191406 C 242.449219 327.191406 230.261719 305.808594 230.261719 305.808594 C 230.261719 305.808594 224.378906 328.898438 220.050781 345.308594 C 215.71875 361.71875 214.980469 361.960938 210.78125 371.21875 C 206.070313 381.609375 194.519531 397.960938 191.121094 402.988281 C 188.410156 407 185.050781 410.339844 183.078125 409.949219 C 181.109375 409.570313 181.109375 407.5 180.628906 403.171875 C 179.96875 397.21875 178.050781 377.230469 178.96875 363.710938 C 179.570313 354.910156 182.640625 340 182.640625 340 L 204.890625 248.921875 C 191.210938 220.851563 202.429688 177 233.601563 177 C 255.710938 177 261.5 197.011719 254.730469 221.058594 C 251.71875 231.789063 242.269531 261.878906 241.980469 263.300781 C 241.691406 264.71875 240.988281 267.71875 241.148438 270.679688 C 241.148438 279.460938 247.859375 297.398438 271.101563 297.398438 C 308.539063 297.398438 326.269531 242.050781 326.269531 205.03125 C 326.269531 175.261719 307.351563 139.300781 252.109375 139.300781 C 195.828125 139.300781 164.789063 182.128906 164.789063 221.441406 C 164.789063 243.488281 173.488281 252.351563 177.519531 257.210938 C 180.800781 261.160156 179.140625 264.949219 179.140625 264.949219 L 175.589844 279.199219 C 174.28125 283.910156 170.070313 286.328125 164.160156 282.878906 C 158.238281 279.480469 130 267.519531 130 216.488281 C 130 164.199219 179.261719 110 255.710938 110 C 316.398438 110 370 148.171875 370 210.011719 C 370 286.351563 322.320313 327.191406 275.421875 327.191406 Z "/>
</g>
</svg>
